<svg width="229" height="241" viewBox="0 0 229 241" fill="none" xmlns="http://www.w3.org/2000/svg">
<circle cx="114.359" cy="126.568" r="114.359" fill="#DE5D73"/>
<ellipse cx="73.7294" cy="190.664" rx="33.4496" ry="25.3937" fill="#C4C4C4"/>
<ellipse cx="158.316" cy="188.213" rx="33.975" ry="25.3937" fill="#C4C4C4"/>
<path d="M197.019 205.55C178.105 225.34 151.311 239.886 119.963 240.926C83.0105 242.152 55.3402 227.967 35.9009 209.753C39.5786 196.969 80.0169 190.839 119.963 190.839C159.908 190.839 193.867 195.918 197.019 205.55Z" fill="#C4C4C4"/>
<rect x="75.6558" y="185.235" width="89.3157" height="43.7822" fill="#C4C4C4"/>
<rect x="41.0659" y="185.235" width="54.9904" height="24.9258" transform="rotate(11.8982 41.0659 185.235)" fill="#C4C4C4"/>
<rect x="138.001" y="195.517" width="54.9904" height="23.7411" transform="rotate(-13.7646 138.001 195.517)" fill="#C4C4C4"/>
<rect x="99.1235" y="150.91" width="30.1221" height="25.5688" fill="#E4A97F"/>
<ellipse cx="114.185" cy="175.603" rx="15.0611" ry="15.2362" fill="#E4A97F"/>
<path d="M129.246 155.289C129.246 158.48 122.416 161.593 114.083 162.644C105.765 162.644 99.1235 160.932 99.1235 157.74C99.1235 152.311 105.765 158.791 114.083 158.791C122.401 158.791 129.246 147.233 129.246 155.289Z" fill="#D29B74"/>
<ellipse cx="109.761" cy="76.0898" rx="53.3965" ry="69.6001" fill="#E4A97F"/>
<ellipse cx="112.001" cy="90.5976" rx="43.6881" ry="69.6001" fill="#E4A97F"/>
<path d="M59.538 76.4818V93.1466L64.2055 113.439L54.2471 96.8014L48.3359 80.795L51.2699 64.1302L54.2471 45.3135L59.538 33.7414L68.4997 19.6254L76.3133 15.8919L82.6179 6.25982L92.024 6.25933L104.509 1H120.216L132.53 8.36088L146.365 15.8919L160.357 39.0084L164.753 57.7472L166.855 73.3336L160.357 100.597V80.795V64.1302L154.942 48.0536L149.715 33.7414L139.633 23.9386L120.216 19.6254L107.894 23.9386H92.024L72.6071 33.7414L68.4997 52.3668L64.2055 70.2079L59.538 76.4818Z" fill="#261E14" stroke="#342C1F"/>
<path d="M97.4379 65.3066H105.653L107.333 63.1499L105.653 60.2091L101.359 58.2485H95.5709H89.5965H84.9289L79.3279 60.2091L74.6604 65.3066L71.8599 70.7962H74.6604L77.4609 66.875L81.9417 65.3066L87.7295 63.1499L97.4379 65.3066Z" fill="#58382C" stroke="#58382C"/>
<path d="M140.939 68.835L135.525 70.0114L131.791 69.4232L131.604 67.0705L134.591 65.6981L140.379 63.5415L146.167 64.5218L150.087 65.6981L154.008 67.0705L158.302 72.364L158.862 76.6773L157.369 78.8339L156.003 74.5207L153.075 70.9181L148.22 70.0114L140.939 68.835Z" fill="#58382C" stroke="#58382C"/>
<path d="M121.54 85.8917C122.103 86.8168 129.412 110.803 121.54 110.595C113.668 110.387 110.698 109.639 111.459 107.85C112.243 106.62 111.241 107.642 119.113 107.85C126.985 108.059 119.676 82.8293 121.54 85.8917Z" fill="#B99073"/>
<path d="M134.405 129.809C134.405 133.816 125.628 140.592 114.801 140.592C103.974 140.592 95.1973 133.816 95.1973 129.809C95.1973 125.803 103.974 127.064 114.801 127.064C125.628 127.064 134.405 125.803 134.405 129.809Z" fill="#4C4135"/>
<path d="M129.551 127.065C129.551 128.472 130.484 131.182 116.482 131.182C98.3716 131.182 99.6785 128.472 99.6785 127.065C101.172 126.673 105.466 126.869 116.482 127.065C124.136 126.673 129.551 126.765 129.551 127.065Z" fill="white"/>
<path d="M126.563 137.847C126.646 138.023 121.297 140.592 114.8 140.592C108.304 140.592 103.038 138.044 101.918 137.259C102.478 136.083 110.88 133.926 114.8 137.063C119.281 133.73 126.002 136.671 126.563 137.847Z" fill="#FF4F6D"/>
<ellipse cx="93.1687" cy="75.9555" rx="3.85283" ry="3.50257" fill="#4C4135"/>
<ellipse cx="140.278" cy="77.1812" rx="3.6777" ry="3.32745" fill="#4C4135"/>
</svg>
